# AST/ASF file generated using VICON BodyLanguage
# -----------------------------------------------
:version 1.10
:name VICON
:units
  mass 1.0
  length 0.45
  angle deg
:documentation
   .ast/.asf automatically generated from VICON data using
   VICON BodyBuilder and BodyLanguage model FoxedUp or BRILLIANT.MOD
:root
   order TX TY TZ RX RY RZ
   axis XYZ
   position 0 0 0  
   orientation 0 0 0 
:bonedata
  begin
     id 1 
     name lhipjoint
     direction 0.662698 -0.695252 0.27831 
     length 2.53073 
     axis 0 0 0  XYZ
  end
  begin
     id 2 
     name lfemur
     direction 0.34202 -0.939693 0  
     length 7.16147  
     axis 0 0 20  XYZ
    dof rx ry rz
    limits (-160.0 20.0)
           (-70.0 70.0)
           (-60.0 70.0)
  end
  begin
     id 3 
     name ltibia
     direction 0.34202 -0.939693 0   
     length 7.63967   
     axis 0 0 20   XYZ
    dof rx
    limits (-10.0 170.0)
  end
  begin
     id 4 
     name lfoot
     direction 0.0938457 -0.257721 0.961651   
     length 1.89793   
     axis -90 7.62852e-016 20   XYZ
    dof rx rz
    limits (-45.0 90.0)
           (-70.0 20.0)
  end
  begin
     id 5 
     name ltoes
     direction -0.00116841 -0.0030592 0.999995   
     length 0.955649   
     axis -90 7.62852e-016 20   XYZ
    dof rx
    limits (-90.0 20.0)
  end
  begin
     id 6 
     name rhipjoint
     direction -0.649445 -0.705948 0.282592   
     length 2.49238  
     axis 0 0 0  XYZ 
  end
  begin
     id 7 
     name rfemur
     direction -0.34202 -0.939693 0   
     length 6.90728   
     axis 0 0 -20   XYZ
    dof rx ry rz
    limits (-160.0 20.0)
           (-70.0 70.0)
           (-70.0 60.0)
  end
  begin
     id 8 
     name rtibia
     direction -0.34202 -0.939693 0   
     length 7.72868   
     axis 0 0 -20   XYZ
    dof rx
    limits (-10.0 170.0)
 end
 begin
     id 9 
     name rfoot
     direction -0.0920068 -0.252865 0.963117   
     length 1.97476  
     axis -90 -7.62852e-016 -20   XYZ
    dof rx rz
    limits (-45.0 90.0)
           (-20.0 70.0)
  end
  begin
     id 10 
     name rtoes
     direction 0.000391322 0.00230649 0.999997   
     length 0.992641   
     axis -90 -7.62852e-016 -20   XYZ
    dof rx
    limits (-90.0 20.0)
  end
  begin
     id 11 
     name lowerback
     direction -0.00875327 0.998321 -0.0572635   
     length 2.20024   
     axis 0 0 0   XYZ
    dof rx ry rz
    limits (-20.0 45.0)
           (-30.0 30.0)
           (-30.0 30.0)
  end
  begin
     id 12 
     name upperback
     direction 0.00753931 0.999972 -0.000360425   
     length 2.20538   
     axis 0 0 0   XYZ
    dof rx ry rz
    limits (-20.0 45.0)
           (-30.0 30.0)
           (-30.0 30.0)
  end
  begin
     id 13 
     name thorax
     direction 0.0117767 0.999601 0.0256663   
     length 2.21508   
     axis 0 0 0   XYZ
    dof rx ry rz
    limits (-20.0 45.0)
           (-30.0 30.0)
           (-30.0 30.0)
  end
  begin
     id 14 
     name lowerneck
     direction 0.060228 0.994909 0.0807986   
     length 1.7607   
     axis 0 0 0   XYZ
    dof rx ry rz
    limits (-20.0 45.0)
           (-30.0 30.0)
           (-30.0 30.0)
  end
  begin
     id 15 
     name upperneck
     direction -0.0563647 0.959594 -0.275685   
     length 1.75612   
     axis 0 0 0   XYZ
    dof rx ry rz
    limits (-20.0 45.0)
           (-30.0 30.0)
           (-30.0 30.0)
  end
  begin
     id 16
     name head
     direction -0.0161544 0.99458 -0.102714  
     length 1.79288  
     axis 0 0 0   XYZ
    dof rx ry rz
    limits (-20.0 45.0)
           (-30.0 30.0)
           (-30.0 30.0)
  end
  begin
     id 17 
     name lclavicle
     direction 0.93913 0.332189 -0.087669  
     length 3.52087  
     axis 0 0 0   XYZ
    dof ry rz
    limits (-20.0 10.0)
           (0.0 20.0)
  end
  begin
     id 18 
     name lhumerus
     direction 1 -4.48974e-011 -2.70836e-027   
     length 5.35289   
     axis -180 -30 -90   XYZ
    dof rx ry rz
    limits (-60.0 90.0)
           (-90.0 90.0)
           (-90.0 90.0)
  end
  begin
     id 19
     name lradius
     direction 1 -4.48961e-011 -9.76021e-027   
     length 3.27727   
     axis -180 -30 -90   XYZ
    dof rx
    limits (-10.0 170.0)
  end
  begin
     id 20
     name lwrist
     direction 1 -4.49103e-011 -2.23668e-026   
     length 1.63864   
     axis 1.44924e-014 90 90   XYZ
    dof ry
    limits (-180.0 0.0)
 end
  begin
     id 21 
     name lhand
     direction 1 3.0697e-005 0.000161777   
     length 0.54443   
     axis 2.85318e-014 90 90   XYZ
    dof rx rz
    limits (-90.0 90.0)
           (-45.0 45.0)
  end
  begin
     id 22 
     name lfingers
     direction 1 -4.49027e-011 -8.9447e-026   
     length 0.438912   
     axis 5.70628e-014 90 90   XYZ
    dof rx
    limits (0.0 90.0)
  end
  begin
     id 23
     name lthumb
     direction 0.707058 2.6516e-005 0.707156   
     length 0.630274   
     axis -90 45 -3.53137e-014   XYZ
    dof rx rz
    limits (-45.0 45.0)
           (-45.0 45.0)
  end
  begin
     id 24 
     name rclavicle
     direction -0.95274 0.284984 -0.105215   
     length 3.43401  
     axis 0 0 0   XYZ 
    dof ry rz
    limits (-10.0 20.0)
           (-20.0 0.0)
  end
  begin
     id 25 
     name rhumerus
     direction -0.999999 -0.000575019 -0.00106829  
     length 5.52077   
     axis -180 30 90   XYZ
    dof rx ry rz
    limits (-90.0 60.0)
           (-90.0 90.0)
           (-90.0 90.0)
  end
  begin
     id 26 
     name rradius
     direction -1 -4.4879e-011 -6.35415e-027   
     length 3.32364   
     axis -180 30 90   XYZ
    dof rx
    limits (-10.0 170.0)
  end
  begin
     id 27 
     name rwrist
     direction -1 -4.49048e-011 -9.98542e-027   
     length 1.66182   
     axis 6.32482e-015 -90 -90   XYZ
    dof ry
    limits (-180.0 0.0)
  end
  begin
     id 28
     name rhand
     direction -1 -4.48978e-011 -1.99771e-026   
     length 0.732235   
     axis 1.27479e-014 -90 -90   XYZ
    dof rx rz
    limits (-90.0 90.0)
           (-45.0 45.0)
  end
  begin
     id 29
     name rfingers
     direction -1 -4.49144e-011 -3.99245e-026   
     length 0.590347   
     axis 2.5496e-014 -90 -90   XYZ
    dof rx
    limits (0.0 90.0)
  end
  begin
     id 30
     name rthumb
     direction -0.707107 -6.35121e-011 0.707107   
     length 0.847624   
     axis -90 -45 -2.82974e-014   XYZ
    dof rx rz
    limits (-45.0 45.0)
           (-45.0 45.0)
  end
:hierarchy
  begin
    root lhipjoint rhipjoint lowerback
    lhipjoint lfemur
    lfemur ltibia
    ltibia lfoot
    lfoot ltoes
    rhipjoint rfemur
    rfemur rtibia
    rtibia rfoot
    rfoot rtoes
    lowerback upperback
    upperback thorax
    thorax lowerneck lclavicle rclavicle
    lowerneck upperneck
    upperneck head
    lclavicle lhumerus
    lhumerus lradius
    lradius lwrist
    lwrist lhand lthumb
    lhand lfingers
    rclavicle rhumerus
    rhumerus rradius
    rradius rwrist
    rwrist rhand rthumb
    rhand rfingers
  end

#!OML:ASF G:\Work\Work\Patient Classification 1\Elijah\terrain1\Elijah.ASF
:FULLY-SPECIFIED
:DEGREES
155
root 15.7984 22.0627 6.01079 4.61908 -8.70186 -3.40046
lowerback 2.58946 1.25527 2.83519
upperback 0.38527 1.76073 0.87314
thorax -0.99808 0.870362 -0.752298
lowerneck -10.2459 14.0501 12.1474
upperneck 33.6787 23.5952 -14.1698
head 17.5532 9.89288 -3.57443
rclavicle -2.40236e-014 1.36261e-014
rhumerus -46.5476 0.853875 -77.8126
rradius 63.5658
rwrist -8.53958
rhand -6.71 17.3737
rfingers 7.12502
rthumb 19.1497 -11.7036
lclavicle -2.40236e-014 1.36261e-014
lhumerus -64.5871 25.714 48.2022
lradius 34.2959
lwrist 8.6383
lhand -9.4882 27.1639
lfingers 7.12502
lthumb 16.4764 56.4843
rfemur -15.9851 -4.01534 25.854
rtibia 61.5863
rfoot -21.7181 2.91165
rtoes -21.3706
lfemur -21.4862 -0.671492 -17.4766
ltibia 16.9561
lfoot 20.322 3.31328
ltoes -20.7849
156
root 15.812 21.9557 6.12009 4.62379 -9.3159 -3.1439
lowerback 2.47139 1.43297 2.67741
upperback 0.494881 1.98362 0.583233
thorax -0.807129 0.985322 -0.962591
lowerneck -10.7463 14.1137 12.2286
upperneck 33.9853 23.545 -13.7894
head 17.7651 9.87298 -3.40202
rclavicle 2.75689e-014 -7.55382e-015
rhumerus -46.6832 0.232051 -77.6602
rradius 64.5297
rwrist -8.62833
rhand -6.9078 16.9062
rfingers 7.12502
rthumb 18.9595 -12.1898
lclavicle 2.75689e-014 -7.55382e-015
lhumerus -64.4994 25.1925 48.4895
lradius 34.9676
lwrist 8.72491
lhand -10.2234 27.9631
lfingers 7.12502
lthumb 15.7685 57.3408
rfemur -16.8354 -4.01024 25.196
rtibia 63.8461
rfoot -21.0139 3.73237
rtoes -18.9628
lfemur -20.5002 -1.70065 -17.4292
ltibia 15.0079
lfoot 21.8839 3.94991
ltoes -21.1887
157
root 15.8292 21.8462 6.2365 4.62347 -9.59914 -2.60865
lowerback 2.24453 1.35721 2.07215
upperback 0.415032 1.86136 0.439321
thorax -0.780893 0.925413 -0.763382
lowerneck -10.437 14.1722 12.3684
upperneck 34.0612 23.7016 -13.926
head 17.8207 9.95312 -3.46984
rclavicle -3.80114e-014 3.8266e-015
rhumerus -47.0494 0.289908 -77.4528
rradius 65.2803
rwrist -8.68335
rhand -7.45656 16.8188
rfingers 7.12502
rthumb 18.4317 -12.328
lclavicle -3.80114e-014 3.8266e-015
lhumerus -65.4949 24.9442 48.0361
lradius 35.5136
lwrist 9.45618
lhand -9.86482 24.7139
lfingers 7.12502
lthumb 16.1138 54.064
rfemur -17.6717 -4.41202 24.1562
rtibia 66.1509
rfoot -19.3784 4.95612
rtoes -12.0609
lfemur -19.5299 -2.59591 -17.854
ltibia 13.1572
lfoot 23.3227 4.63809
ltoes -21.9702
158
root 15.8366 21.7258 6.35866 4.54569 -10.155 -2.60323
lowerback 2.21481 1.48708 1.97088
upperback 0.472156 2.02968 0.353465
thorax -0.701389 1.01083 -0.797167
lowerneck -11.1354 14.1568 12.1198
upperneck 34.4801 23.5664 -13.4252
head 18.0456 9.85568 -3.20614
rclavicle -2.83392e-014 -6.16232e-015
rhumerus -47.442 0.0149523 -77.2545
rradius 66.1117
rwrist -8.84025
rhand -8.14421 17.0824
rfingers 7.12502
rthumb 17.7701 -12.1257
lclavicle -2.83392e-014 -6.16232e-015
lhumerus -66.0235 24.0246 48.6357
lradius 36.9683
lwrist 11.0058
lhand -10.1118 23.6948
lfingers 7.12502
lthumb 15.876 53.064
rfemur -18.3187 -4.35891 23.7698
rtibia 68.4786
rfoot -18.9042 5.94433
rtoes -10.803
lfemur -18.3637 -3.10568 -17.6954
ltibia 11.3295
lfoot 24.592 5.67778
ltoes -21.9516
159
root 15.8469 21.6028 6.47109 4.50165 -10.4579 -2.739
lowerback 2.34212 1.4736 1.92808
upperback 0.530138 2.01321 0.396034
thorax -0.716736 1.00284 -0.732018
lowerneck -12.2681 14.2186 11.5784
upperneck 34.968 23.4378 -12.5262
head 18.2808 9.73935 -2.68694
rclavicle -1.18525e-014 9.74045e-015
rhumerus -47.6264 -0.04393 -77.0256
rradius 66.8346
rwrist -9.11509
rhand -8.67525 17.1348
rfingers 7.12502
rthumb 17.259 -12.1188
lclavicle -1.18525e-014 9.74045e-015
lhumerus -66.5086 23.4563 49.1821
lradius 38.159
lwrist 12.6435
lhand -10.6326 24.3542
lfingers 7.12502
lthumb 15.3744 53.7626
rfemur -19.0234 -4.6213 23.4969
rtibia 70.8247
rfoot -18.466 6.82379
rtoes -10.9429
lfemur -17.1256 -2.27243 -17.8423
ltibia 9.28692
lfoot 26.1187 6.22469
ltoes -19.0112
160
root 15.8584 21.4694 6.56895 4.51342 -10.7125 -2.81374
lowerback 2.48473 1.44203 1.84208
upperback 0.501426 1.97281 0.394785
thorax -0.829929 0.981613 -0.688784
lowerneck -12.0277 14.3854 11.5034
upperneck 34.4901 23.7177 -12.7426
head 18.035 9.85159 -2.70634
rclavicle -4.11733e-014 9.0447e-015
rhumerus -47.7211 -0.427726 -76.7872
rradius 67.2182
rwrist -9.14347
rhand -8.98467 17.1477
rfingers 7.12502
rthumb 16.9612 -12.1317
lclavicle -4.11733e-014 9.0447e-015
lhumerus -66.7599 23.2507 49.2902
lradius 38.6194
lwrist 14.0027
lhand -11.3477 25.6762
lfingers 7.12502
lthumb 14.6855 55.1361
rfemur -19.9864 -4.91027 23.1813
rtibia 73.2611
rfoot -17.7559 7.63644
rtoes -11.533
lfemur -15.7723 -1.47214 -17.9976
ltibia 6.97584
lfoot 28.003 7.52027
ltoes -13.3631
161
root 15.8734 21.3229 6.67351 4.39458 -10.9693 -2.4424
lowerback 2.63573 1.48593 1.47092
upperback 0.445355 2.02295 0.171569
thorax -0.975439 1.00605 -0.716698
lowerneck -11.9116 14.4506 11.4344
upperneck 34.0669 23.7368 -12.7288
head 17.7532 9.8789 -2.68491
rclavicle 6.59717e-015 8.54774e-015
rhumerus -48.1359 -1.07355 -76.6033
rradius 67.7322
rwrist -9.134
rhand -9.42915 17.2954
rfingers 7.12502
rthumb 16.5333 -12.0203
lclavicle 6.59717e-015 8.54774e-015
lhumerus -66.9065 22.7513 49.499
lradius 39.1558
lwrist 15.4324
lhand -12.3264 26.3943
lfingers 7.12502
lthumb 13.7425 55.9205
rfemur -20.9275 -5.33744 22.2715
rtibia 75.7513
rfoot -16.7327 8.71785
rtoes -10.7307
lfemur -14.0515 -0.729316 -18.6747
ltibia 4.47551
lfoot 29.7144 8.43575
ltoes -8.72969
162
root 15.8919 21.1633 6.78835 4.17117 -11.1776 -1.96071
lowerback 2.74475 1.43815 0.925064
upperback 0.52149 1.94284 0.0116114
thorax -0.972913 0.967823 -0.574388
lowerneck -12.0081 14.5958 11.3274
upperneck 33.4442 23.9907 -13.0866
head 17.5406 9.94655 -2.73776
rclavicle 2.38293e-014 -5.36719e-015
rhumerus -48.376 -1.26165 -76.4876
rradius 68.3422
rwrist -9.24991
rhand -10.0411 17.5344
rfingers 7.12502
rthumb 15.9441 -11.8293
lclavicle 2.38293e-014 -5.36719e-015
lhumerus -67.2304 22.3803 49.8496
lradius 39.7927
lwrist 17.0889
lhand -13.1249 25.4654
lfingers 7.12502
lthumb 12.9727 55.042
rfemur -21.7348 -5.90059 21.124
rtibia 78.2849
rfoot -15.9432 10.0228
rtoes -9.98423
lfemur -12.5138 -0.0633816 -19.5425
ltibia 2.83945
lfoot 29.855 9.04201
ltoes -2.46075
